<svg width="109" height="71" viewBox="0 0 109 71" fill="none" xmlns="http://www.w3.org/2000/svg">
<path d="M9.144 25.48L4.008 17.872V31H2.52V14.68H3.36L9.336 23.272L15.216 14.68H16.2V31H14.688V17.752L9.624 25.384L9.144 25.48ZM23.0706 33.352L23.8386 31.168L19.2306 19.6L20.6466 19.36L24.4626 29.008L28.0626 19.36H29.5026L26.2866 28.192L24.3906 33.688C24.1506 34.344 23.7506 34.896 23.1906 35.344C22.6306 35.792 21.9666 36.096 21.1986 36.256L20.7906 35.296C21.3826 35.024 21.8546 34.768 22.2066 34.528C22.5746 34.288 22.8626 33.896 23.0706 33.352Z" fill="#1A7BFF"/>
<path d="M24.377 53.4746C24.1777 56.2285 23.1582 58.3965 21.3184 59.9785C19.4902 61.5605 17.0762 62.3516 14.0762 62.3516C10.7949 62.3516 8.21094 61.25 6.32422 59.0469C4.44922 56.832 3.51172 53.7969 3.51172 49.9414V48.377C3.51172 45.916 3.94531 43.748 4.8125 41.873C5.67969 39.998 6.91602 38.5625 8.52148 37.5664C10.1387 36.5586 12.0137 36.0547 14.1465 36.0547C17.0996 36.0547 19.4785 36.8457 21.2832 38.4277C23.0879 40.0098 24.1309 42.2305 24.4121 45.0898H19.1387C19.0098 43.4375 18.5469 42.2422 17.75 41.5039C16.9648 40.7539 15.7637 40.3789 14.1465 40.3789C12.3887 40.3789 11.0703 41.0117 10.1914 42.2773C9.32422 43.5312 8.87891 45.4824 8.85547 48.1309V50.0645C8.85547 52.8301 9.27148 54.8516 10.1035 56.1289C10.9473 57.4062 12.2715 58.0449 14.0762 58.0449C15.7051 58.0449 16.918 57.6758 17.7148 56.9375C18.5234 56.1875 18.9863 55.0332 19.1035 53.4746H24.377ZM37.2969 55.6543L43.0977 36.4062H48.9688L40.0566 62H34.5547L25.6777 36.4062H31.5312L37.2969 55.6543Z" fill="#1A7BFF"/>
<path d="M97.9375 36.1538L90.5625 54.6154L64.75 62L57.375 58.3077L50 62L57.375 50.9231L64.75 54.6154L69.1865 51.6731L73.7383 41L64.75 14L79.5 21.3846L84.9736 35.0577L101.625 25.0769L109 36.1538H97.9375Z" fill="#1A7BFF"/>
</svg>
